# xmcd
#
# Track frame offsets: 
#        150
#        18152
#        53185
#        69242
#        98272
#        140912
#        159785
#        175847
#        195540
#        216185
#        233195
#        248150
#        268490
#        305712
#        324007
#
# Disc length: 4672 seconds
#
# Revision: 4
# Processed by: cddbd v1.5.2PL0 Copyright (c) Steve Scherf et al.
# Submitted via: ExactAudioCopy v1.3
#
DISCID=c8123e0f
DTITLE=J.B.'s - Funky Good Time The Anthology Disc 2
DYEAR=1995
DGENRE=
TTITLE0=Gimme Some More (Very Live)
TTITLE1=Fred Wesley And The J.B.'s - Same Beat (Parts 1-3)
TTITLE2=Fred Wesley And The J.B.'s - If You Don't Get It The First Tim
TTITLE2=e Back Up And Try It Again Party
TTITLE3=Fred Wesley And The J.B.'s - Damn Right I Am Somebody
TTITLE4=Fred Wesley And The J.B.'s - I'm Payin' Taxes What Am I Buyin'
TTITLE5=Maceo And The Macks - Soul Power '74
TTITLE6=Last Word - Keep On Bumpin' Before You Give Out Of Gas
TTITLE7=Fred And The New J.B.'s - Breakin' Bread
TTITLE8=Fred And The New J.B.'s - Rockin' Funky Watergate
TTITLE9=First Family - Control (People Go Where We Send You) (Part 1)
TTITLE10=Maceo And The Macks - Cross The Track (We Better Go Back)
TTITLE11=All Aboard The Soul Funky Train
TTITLE12=(It's Not The Express) It's The J.B.'s Monaurail
TTITLE13=Maceo - Future Shock (Dance Your Pants Off)
TTITLE14=J.B.'s With James Brown - Everybody Wanna Get Funky One More 
TTITLE14=Time (Part 1)
EXTD=
EXTT0=
EXTT1=
EXTT2=
EXTT3=
EXTT4=
EXTT5=
EXTT6=
EXTT7=
EXTT8=
EXTT9=
EXTT10=
EXTT11=
EXTT12=
EXTT13=
EXTT14=
PLAYORDER=
